<?xml version="1.0" encoding="UTF-8" standalone="no"?>
<!-- Created with Inkscape (http://www.inkscape.org/) -->

<svg
   xmlns:dc="http://purl.org/dc/elements/1.1/"
   xmlns:cc="http://creativecommons.org/ns#"
   xmlns:rdf="http://www.w3.org/1999/02/22-rdf-syntax-ns#"
   xmlns:svg="http://www.w3.org/2000/svg"
   xmlns="http://www.w3.org/2000/svg"
   xmlns:sodipodi="http://sodipodi.sourceforge.net/DTD/sodipodi-0.dtd"
   xmlns:inkscape="http://www.inkscape.org/namespaces/inkscape"
   width="86.508217mm"
   height="14.811266mm"
   viewBox="0 0 306.52518 52.480863"
   id="svg4185"
   version="1.1"
   inkscape:version="0.91 r13725"
   sodipodi:docname="rusconlogo.svg">
  <defs
     id="defs4187" />
  <sodipodi:namedview
     id="base"
     pagecolor="#ffffff"
     bordercolor="#666666"
     borderopacity="1.0"
     inkscape:pageopacity="0.0"
     inkscape:pageshadow="2"
     inkscape:zoom="1"
     inkscape:cx="330.01146"
     inkscape:cy="-128.43134"
     inkscape:document-units="px"
     inkscape:current-layer="layer1"
     showgrid="false"
     fit-margin-top="0"
     fit-margin-left="0"
     fit-margin-right="0"
     fit-margin-bottom="0"
     inkscape:window-width="1920"
     inkscape:window-height="1018"
     inkscape:window-x="-8"
     inkscape:window-y="-8"
     inkscape:window-maximized="1" />
  <metadata
     id="metadata4190">
    <rdf:RDF>
      <cc:Work
         rdf:about="">
        <dc:format>image/svg+xml</dc:format>
        <dc:type
           rdf:resource="http://purl.org/dc/dcmitype/StillImage" />
        <dc:title></dc:title>
      </cc:Work>
    </rdf:RDF>
  </metadata>
  <g
     inkscape:label="Layer 1"
     inkscape:groupmode="layer"
     id="layer1"
     transform="translate(-55.167388,-55.764622)">
    <g
       id="g4745"
       transform="matrix(0.81389827,0,0,0.81389827,24.916915,12.819587)">
      <g
         inkscape:export-filename="C:\Users\picasso\Pictures\Ruscon_big.png"
         transform="matrix(1.4369551,0,0,1.4268762,-303.45217,-378.71612)"
         id="g4580"
         inkscape:export-ydpi="96"
         inkscape:export-xdpi="96">
        <path
           id="path4395-6"
           style="fill:#ee3338;fill-opacity:1;fill-rule:nonzero;stroke:none"
           d="m 275.90843,340.96482 0,-23.1059 -21.54472,0 0,8.16958 11.17317,0 0,6.19769 -18.12547,0 0,-12.40281 c 0,-1.54386 0,-4.92599 1.62055,-6.8286 1.44737,-1.68983 3.88439,-1.76653 5.78947,-1.76653 l 20.62187,0 c 1.90755,0 4.33962,0.0766 5.78698,1.76653 1.62551,1.90261 1.62551,5.28474 1.62551,6.8286 l 0,19.16213 c 0,1.55376 0,4.93589 -1.62551,6.8385 -1.44736,1.68983 -3.87943,1.76158 -5.78698,1.76158 l -20.62187,0 c -1.73437,0 -4.22334,-0.0717 -5.72761,-1.69478 -1.56365,-1.68488 -1.68241,-4.36684 -1.68241,-6.54902 l 0,-0.98965 6.9523,-1.47459 0,4.08727 21.54472,0 z"
           inkscape:connector-curvature="0" />
        <path
           id="path4399-4"
           style="fill:#364c9d;fill-opacity:1;fill-rule:nonzero;stroke:none"
           d="m 243.99242,309.01613 0,23.10836 21.54719,0 0,-8.16957 -11.17564,0 0,-6.20017 18.12547,0 0,12.40034 c 0,1.5488 0,4.92846 -1.62055,6.83354 -1.45232,1.68983 -3.88191,1.75911 -5.79689,1.75911 l -20.61444,0 c -1.91251,0 -4.34457,-0.0693 -5.79194,-1.75911 -1.62303,-1.90508 -1.62303,-5.28474 -1.62303,-6.83354 l 0,-19.16213 c 0,-1.55376 0,-4.93342 1.62303,-6.83602 1.44737,-1.69231 3.87943,-1.76158 5.79194,-1.76158 l 20.61444,0 c 1.74426,0 4.23076,0.0693 5.73503,1.6923 1.56365,1.6923 1.68241,4.36684 1.68241,6.54902 l 0,0.63833 -6.90777,0 -0.0422,-2.25888 -21.54719,0 z"
           inkscape:connector-curvature="0" />
      </g>
      <path
         inkscape:export-filename="C:\Users\picasso\Pictures\Ruscon_big.png"
         inkscape:export-ydpi="96"
         inkscape:export-xdpi="96"
         inkscape:connector-curvature="0"
         d="m 380.50107,114.14792 0,-16.16833 c 0,-8.754859 -0.16155,-16.322552 -0.5631,-23.488562 l 0.31921,0 c 2.55365,6.290877 6.12948,13.22017 9.31078,18.955117 l 11.46989,20.701775 12.74315,0 0,-53.666088 -11.15429,0 0,15.605227 c 0,8.120039 0.24763,15.36853 0.95763,22.444853 l -0.16155,0 c -2.46398,-6.039802 -5.57356,-12.728783 -8.75126,-18.381253 l -11.15429,-19.668827 -14.1706,0 0,53.666088 11.15427,0 z M 335.66873,69.157772 c 8.36392,0 12.89736,8.285012 12.89736,18.001082 0,10.42262 -4.69124,18.223446 -12.89736,18.223446 -8.11644,0 -13.05875,-7.40271 -13.05875,-17.986736 0,-10.436951 4.78091,-18.237792 13.05875,-18.237792 m 0.23671,-9.629975 c -15.75945,0 -26.11392,12.022232 -26.11392,28.100897 0,15.368466 9.40043,27.390796 25.23881,27.390796 15.77021,0 26.36141,-10.58403 26.36141,-28.265923 0,-14.884324 -8.99517,-27.22577 -25.4863,-27.22577 m -31.04548,43.634433 c -2.47115,1.02937 -6.45227,1.74665 -10.19308,1.74665 -10.74541,0 -17.11878,-6.764311 -17.11878,-17.513316 0,-11.950501 7.48521,-17.760775 17.03987,-17.760775 4.3864,0 7.80084,0.957631 10.18591,1.990567 l 2.55365,-9.551084 c -2.14478,-1.194347 -6.9257,-2.392263 -13.21657,-2.392263 -16.24006,0 -29.29523,10.11418 -29.29523,28.427282 0,15.289649 9.55107,26.910199 28.10448,26.910199 6.44869,0 11.54164,-1.27323 13.69359,-2.30624 l -1.75384,-9.55102 z m -82.64212,8.43207 c 3.02348,1.67128 9.06689,3.34629 15.20354,3.34629 14.73012,0 21.57691,-7.63952 21.57691,-16.638212 0,-7.564114 -4.37923,-12.499249 -13.85141,-16.00694 -7.0046,-2.621797 -9.94918,-4.142501 -9.94918,-7.564103 0,-2.704289 2.54288,-5.175453 7.80082,-5.175453 5.16827,0 9.07047,1.513555 11.14353,2.550071 l 2.70786,-9.716069 c -3.18488,-1.509959 -7.5641,-2.707875 -13.69,-2.707875 -12.58173,0 -20.30725,6.93289 -20.30725,16.085842 0,7.804421 5.89277,12.743153 14.80902,15.928033 6.44869,2.227278 8.99516,4.138927 8.99516,7.485213 0,3.496923 -2.94459,5.810213 -8.51456,5.810213 -5.17903,0 -10.27556,-1.67843 -13.46046,-3.34265 l -2.46398,9.94564 z m -52.23505,-51.112468 0,29.93723 c 0,17.043448 7.8869,24.600428 21.41909,24.600428 14.01281,0 22.37673,-7.88338 22.37673,-24.44262 l 0,-30.095038 -12.10115,0 0,30.815937 c 0,9.551091 -3.5041,14.009151 -9.87747,14.009151 -6.1223,0 -9.70888,-4.69837 -9.70888,-14.009151 l 0,-30.815937 -12.10832,0 z m -34.78988,9.07405 c 0.87512,-0.243881 2.55006,-0.39811 5.49106,-0.39811 5.57714,0 8.91625,2.553651 8.91625,7.406305 0,4.70201 -3.57942,7.725508 -9.63357,7.725508 l -4.77374,0 0,-14.733703 z m -12.02583,44.592038 12.02583,0 0,-21.103476 3.583,0 c 5.01404,0.08264 7.32739,1.829156 8.84092,8.604216 1.50996,6.6065 2.86211,10.91042 3.65832,12.49926 l 12.42395,0 c -1.02937,-2.07304 -2.62897,-9.07771 -4.29673,-15.210722 -1.35574,-4.931555 -3.42879,-8.439235 -7.16601,-9.956353 l 0,-0.233273 c 4.61235,-1.667768 9.46859,-6.369772 9.46859,-13.137678 0,-4.93872 -1.75025,-8.758438 -5.01046,-11.304907 -3.82688,-3.023498 -9.39327,-4.225004 -17.35908,-4.225004 -6.53116,0 -12.26254,0.487779 -16.16833,1.119014 l 0,52.948823 z"
         style="fill:#384c93;fill-opacity:1;fill-rule:nonzero;stroke:none"
         id="path4403-5" />
    </g>
  </g>
</svg>
